<svg width="120" height="42" viewBox="0 0 120 42" fill="none" xmlns="http://www.w3.org/2000/svg">
<path d="M35.891 8.90399L28.678 30.804C28.473 31.4011 28.0983 31.9254 27.6 32.313C27.1179 32.6844 26.5245 32.8821 25.916 32.874C25.2932 32.8871 24.6843 32.6894 24.188 32.313C23.692 31.9303 23.3289 31.4014 23.15 30.801L17.967 15.124L12.784 30.801C12.5778 31.3999 12.201 31.9255 11.7 32.313C11.219 32.6836 10.6271 32.8812 10.02 32.874C9.39723 32.8871 8.78829 32.6894 8.292 32.313C7.79675 31.93 7.43435 31.4011 7.256 30.801L0 8.90399H4.1L10.02 26.824L15.894 8.90399H19.994L25.914 26.824L31.831 8.90399H35.891Z" fill="black"/>
<path d="M46.319 32.874C44.7427 32.8812 43.1801 32.5805 41.719 31.989C40.2629 31.3969 38.9467 30.5068 37.855 29.376C36.7437 28.2714 35.8623 26.9574 35.262 25.51C34.6565 24.0523 34.3482 22.4884 34.355 20.91C34.3482 19.3316 34.6565 17.7677 35.262 16.31C35.8626 14.8634 36.7439 13.5501 37.855 12.446C38.95 11.3131 40.2653 10.4164 41.72 9.81101C43.1777 9.20558 44.7416 8.89722 46.32 8.90401C47.9537 8.87303 49.5747 9.19716 51.071 9.85401C52.4433 10.4795 53.6327 11.4458 54.526 12.661C55.3118 13.6454 55.8388 14.8108 56.059 16.051C56.2503 17.1762 56.075 18.333 55.559 19.351C55.0076 20.4517 54.1248 21.3516 53.035 21.924C51.8315 22.5593 50.4866 22.879 49.126 22.853H38.455C38.6773 23.7274 39.0422 24.5592 39.535 25.315C40.0169 26.0552 40.6161 26.7121 41.309 27.26C42.0035 27.809 42.784 28.2395 43.619 28.534C44.4862 28.8392 45.3996 28.9925 46.319 28.987C48.3298 29.0104 50.2745 28.2695 51.76 26.914L54.395 29.765C53.2945 30.7591 52.0207 31.5425 50.637 32.076C49.2596 32.6074 47.7953 32.878 46.319 32.874ZM49.126 18.967C49.7573 18.9793 50.3838 18.8541 50.962 18.6C51.4299 18.4128 51.8186 18.0694 52.062 17.628C52.1753 17.4011 52.2378 17.1523 52.2452 16.8987C52.2526 16.6452 52.2048 16.3932 52.105 16.16C51.9437 15.743 51.7249 15.3505 51.455 14.994C50.8378 14.2415 50.0485 13.6487 49.1538 13.2658C48.2592 12.8829 47.2854 12.721 46.315 12.794C45.3937 12.7888 44.4791 12.9497 43.615 13.269C42.7811 13.5781 42.0011 14.0168 41.304 14.569C40.6122 15.1168 40.0141 15.7734 39.533 16.513C39.0417 17.2665 38.6775 18.0955 38.455 18.967H49.126Z" fill="black"/>
<path d="M77.226 12.446C78.3346 13.5511 79.2135 14.8646 79.812 16.311C80.4162 17.769 80.7239 19.3328 80.717 20.911C80.7238 22.4894 80.4154 24.0533 79.81 25.511C79.2044 26.969 78.3248 28.2973 77.219 29.424C76.0989 30.5257 74.7799 31.405 73.332 32.015C71.8682 32.6244 70.2966 32.9329 68.711 32.922C66.6703 32.9369 64.6608 32.4207 62.88 31.424V41.901H58.993V17.456C58.9783 16.2595 59.2208 15.0737 59.704 13.979C60.1789 12.9268 60.8774 11.9907 61.751 11.236C62.6945 10.4741 63.7677 9.88876 64.919 9.50801C66.1635 9.09823 67.4668 8.89554 68.777 8.90801C69.1223 8.90801 69.4673 8.92235 69.812 8.95101C70.1567 8.97968 70.5013 9.02301 70.846 9.08101C73.2736 9.5039 75.5061 10.6814 77.226 12.446ZM68.726 29.031C69.8123 29.039 70.8887 28.8246 71.889 28.401C72.8531 27.9941 73.7293 27.4042 74.469 26.664C75.2078 25.9224 75.7963 25.045 76.202 24.08C76.6245 23.077 76.8382 21.9984 76.83 20.91C76.8382 19.8217 76.6245 18.743 76.202 17.74C75.7963 16.775 75.2078 15.8976 74.469 15.156C73.73 14.418 72.8553 13.8299 71.893 13.424C70.8927 13.0004 69.8163 12.786 68.73 12.794C67.1308 12.7099 65.5569 13.2191 64.31 14.224C63.8385 14.6119 63.4637 15.1043 63.2155 15.6622C62.9673 16.22 62.8524 16.828 62.88 17.438V26.513C63.6404 27.3098 64.554 27.9445 65.566 28.379C66.5646 28.8105 67.6412 29.0321 68.729 29.03L68.726 29.031Z" fill="#2B2E3F"/>
<path d="M83.533 32.874V15.944C83.4975 14.9863 83.6815 14.0331 84.0707 13.1574C84.46 12.2816 85.0443 11.5064 85.779 10.891C86.5695 10.235 87.4786 9.737 88.457 9.42401C89.5447 9.0706 90.6824 8.89567 91.826 8.90601H91.912C93.7927 8.89275 95.6425 9.38489 97.268 10.331L95.324 13.7C94.2892 13.0958 93.1103 12.7824 91.912 12.793H91.782C91.1093 12.7863 90.4394 12.881 89.795 13.074C89.2414 13.2341 88.7268 13.5064 88.283 13.874C87.9916 14.1317 87.7624 14.4522 87.6128 14.8112C87.4631 15.1703 87.3969 15.5586 87.419 15.947V32.874H83.533Z" fill="#2B2E3F"/>
<path d="M107.178 32.874C105.602 32.8812 104.039 32.5806 102.578 31.989C101.122 31.3969 99.8058 30.5068 98.714 29.376C97.5822 28.2839 96.6915 26.967 96.099 25.51C95.5075 24.0489 95.2068 22.4863 95.214 20.91C95.2068 19.3337 95.5075 17.7712 96.099 16.31C96.6917 14.8538 97.5825 13.5376 98.714 12.446C99.809 11.3131 101.124 10.4164 102.579 9.81103C104.037 9.2056 105.601 8.89725 107.179 8.90403C108.75 8.89585 110.307 9.20432 111.757 9.81103C113.213 10.4266 114.533 11.3218 115.644 12.446C116.754 13.5506 117.635 14.8642 118.235 16.311C118.84 17.7687 119.149 19.3326 119.142 20.911C119.149 22.4894 118.84 24.0533 118.235 25.511C117.635 26.9579 116.754 28.2715 115.644 29.376C114.536 30.4983 113.214 31.3868 111.757 31.989C110.304 32.5819 108.748 32.8826 107.178 32.874ZM107.178 12.791C106.093 12.7832 105.019 13.004 104.025 13.439C103.067 13.8567 102.195 14.4499 101.455 15.188C100.719 15.9252 100.132 16.7979 99.727 17.758C99.3059 18.7555 99.0928 19.8284 99.101 20.911C99.0928 21.9937 99.3059 23.0666 99.727 24.064C100.132 25.0241 100.719 25.8968 101.455 26.634C102.192 27.3704 103.065 27.9572 104.025 28.362C105.022 28.7832 106.095 28.9962 107.178 28.988C108.261 28.9962 109.334 28.7832 110.331 28.362C111.291 27.9572 112.164 27.3704 112.901 26.634C113.637 25.8968 114.224 25.0241 114.629 24.064C115.05 23.0666 115.263 21.9937 115.255 20.911C115.263 19.8284 115.05 18.7555 114.629 17.758C114.224 16.7979 113.637 15.9252 112.901 15.188C112.161 14.4499 111.289 13.8567 110.331 13.439C109.337 13.004 108.263 12.7832 107.178 12.791Z" fill="#2B2E3F"/>
</svg>
